<?xml version="1.0" standalone="no"?>
<!DOCTYPE svg PUBLIC "-//W3C//DTD SVG 20010904//EN"
 "http://www.w3.org/TR/2001/REC-SVG-20010904/DTD/svg10.dtd">
<svg version="1.0" xmlns="http://www.w3.org/2000/svg"
 width="260.000000pt" height="260.000000pt" viewBox="0 0 260.000000 260.000000"
 preserveAspectRatio="xMidYMid meet">
<metadata>
Created by potrace 1.11, written by Peter Selinger 2001-2013
</metadata>
<g transform="translate(0.000000,260.000000) scale(0.100000,-0.100000)"
fill="#000000" stroke="none">
<path d="M1615 2506 c-49 -50 -103 -98 -120 -106 -16 -8 -66 -40 -110 -71 -44
-32 -107 -73 -140 -92 -33 -20 -65 -44 -72 -55 -7 -11 -26 -23 -43 -27 -18 -4
-55 -26 -84 -50 -42 -34 -61 -43 -89 -42 l-35 1 3 50 c2 28 9 86 16 129 12 71
11 81 -6 113 -10 19 -22 34 -26 34 -4 0 -25 16 -46 36 -76 72 -98 76 -273 49
-133 -20 -148 -25 -294 -99 -67 -34 -145 -72 -173 -85 -29 -13 -53 -27 -53
-30 0 -3 18 -15 40 -25 22 -11 40 -20 40 -21 0 -1 9 -37 20 -80 11 -42 23
-109 26 -149 3 -39 8 -73 9 -76 8 -14 19 -210 19 -345 0 -135 -9 -274 -19
-315 -2 -8 -7 -60 -10 -115 -4 -54 -8 -102 -10 -105 -1 -3 -6 -41 -10 -85 -4
-44 -8 -93 -10 -110 -3 -16 -7 -59 -11 -95 -3 -36 -8 -67 -9 -70 -2 -3 -6 -30
-10 -60 -9 -74 -61 -273 -85 -328 -11 -25 -28 -51 -38 -58 -15 -11 -15 -13 10
-19 47 -12 121 27 145 76 38 79 54 128 82 244 31 131 36 160 45 270 14 149 17
179 20 182 2 2 15 -1 30 -7 28 -10 131 10 231 45 56 20 116 26 120 11 8 -26
19 -286 19 -481 1 -241 4 -235 -88 -191 -65 31 -69 31 -57 9 5 -10 29 -62 53
-115 24 -54 60 -114 79 -135 33 -35 47 -48 106 -96 14 -11 30 -16 46 -12 20 5
27 16 34 55 14 70 16 188 4 256 -5 33 -12 97 -15 144 -3 47 -8 96 -11 110 -17
82 -22 867 -6 883 5 5 4 29 -1 55 -5 26 -5 76 -1 112 8 73 7 69 17 91 4 9 9
47 11 85 2 38 4 75 4 82 1 8 19 12 55 12 52 0 55 -1 61 -30 5 -24 11 -29 24
-25 19 6 29 -15 62 -120 14 -46 14 -108 -1 -135 -8 -15 -6 -28 7 -52 14 -26
18 -63 20 -173 2 -77 3 -144 4 -150 6 -70 -45 -420 -82 -560 -22 -82 -70 -184
-90 -190 -16 -5 -18 -10 -8 -21 28 -34 115 4 144 63 11 21 27 49 36 63 16 27
39 97 45 143 2 15 6 39 8 55 6 42 27 114 41 143 16 30 21 72 30 229 7 124 8
132 24 200 5 25 13 80 17 124 l7 78 68 33 c72 35 112 36 129 5 12 -23 18 -819
6 -930 -4 -47 -9 -106 -11 -132 -2 -27 -16 -74 -35 -112 -36 -74 -35 -94 8
-184 31 -66 75 -112 108 -112 30 0 40 24 49 116 7 89 13 153 22 234 7 69 10
359 5 475 -5 102 7 404 16 420 5 10 24 -15 61 -82 113 -206 269 -440 425 -638
90 -114 81 -106 162 -158 110 -71 194 -97 263 -82 47 10 38 33 -36 95 -146
122 -157 133 -255 238 -52 56 -194 228 -224 271 -7 9 -38 58 -70 110 -33 52
-68 109 -79 126 -11 18 -33 54 -49 81 -16 27 -36 60 -46 74 -9 14 -19 35 -22
48 -5 18 -1 23 20 29 15 3 63 24 108 45 45 21 86 38 92 38 6 0 31 18 57 40 25
22 66 51 90 66 25 14 45 30 45 35 0 5 9 9 20 9 14 0 21 9 25 33 7 42 4 55 -23
99 -29 46 -73 63 -111 43 -15 -7 -47 -39 -72 -71 -31 -40 -76 -78 -159 -134
-64 -43 -123 -88 -131 -100 -19 -28 -53 -17 -46 16 3 18 -3 26 -34 39 -21 10
-44 15 -52 12 -18 -7 -37 11 -37 34 0 11 19 23 56 38 30 11 69 34 85 51 17 16
38 30 47 30 32 0 80 36 160 121 17 18 46 45 63 59 59 48 59 48 48 79 -18 51
-73 134 -95 142 -16 6 -30 -1 -60 -30 -21 -21 -115 -95 -208 -165 -92 -70
-175 -133 -183 -141 -8 -8 -36 -29 -61 -47 -26 -17 -60 -42 -76 -55 -33 -28
-87 -57 -84 -46 7 22 -81 173 -134 229 l-29 31 93 61 c51 33 104 65 118 70 14
6 65 35 114 66 49 31 117 65 151 75 34 11 92 35 129 55 37 20 75 36 84 36 9 0
31 7 47 16 28 15 45 20 88 23 30 2 20 46 -20 88 -69 72 -141 134 -159 138 -11
2 -26 6 -34 8 -9 3 -48 -29 -105 -87z m-891 -195 c4 -1 5 -56 1 -123 -12 -199
-13 -206 -16 -361 l-3 -149 -55 7 c-30 4 -63 8 -72 10 -9 2 -44 -10 -79 -26
-34 -17 -69 -29 -78 -27 -19 4 -23 39 -10 108 5 25 10 83 13 130 5 110 15 189
26 196 13 8 -25 62 -62 87 -19 12 -35 29 -37 38 -5 27 289 123 348 113 8 -1
19 -3 24 -3z m-21 -843 c-1 -40 -2 -132 -2 -204 l-1 -132 -37 19 c-46 24 -94
19 -180 -16 -34 -13 -80 -29 -103 -34 l-42 -9 7 51 c4 29 9 70 11 92 4 41 21
165 29 221 5 30 7 31 69 38 35 3 78 11 94 17 28 10 106 25 142 28 12 1 15 -12
13 -71z"/>
</g>
</svg>
