<?xml version="1.0" encoding="UTF-8" standalone="no"?>
<svg
   xmlns:dc="http://purl.org/dc/elements/1.1/"
   xmlns:cc="http://creativecommons.org/ns#"
   xmlns:rdf="http://www.w3.org/1999/02/22-rdf-syntax-ns#"
   xmlns:svg="http://www.w3.org/2000/svg"
   xmlns="http://www.w3.org/2000/svg"
   id="svg8"
   version="1.1"
   viewBox="0 0 55.374976 14.297312"
   height="54.037083"
   width="209.29124">
  <defs
     id="defs2" />
  <metadata
     id="metadata5">
    <rdf:RDF>
      <cc:Work
         rdf:about="">
        <dc:format>image/svg+xml</dc:format>
        <dc:type
           rdf:resource="http://purl.org/dc/dcmitype/StillImage" />
        <dc:title></dc:title>
      </cc:Work>
    </rdf:RDF>
  </metadata>
  <g
     transform="translate(-49.714151,-151.45776)"
     id="layer1">
    <g
       id="flowRoot3713"
       style="font-style:normal;font-weight:normal;font-size:40px;line-height:1.25;font-family:sans-serif;letter-spacing:0px;word-spacing:0px;opacity:1;fill:#224580;fill-opacity:1;stroke:none"
       clip-path="none"
       transform="matrix(0.26458333,0,0,0.26458333,5.8209421,0)"
       aria-label="
Myaku脈">
      <path
         id="path818"
         style="font-size:53.33333588px;text-align:center;text-anchor:middle;fill:#224580;fill-opacity:1"
         d="m 183.49559,611.32922 q -0.53333,-1.28 -1.44,-3.25333 -0.85333,-1.97334 -1.86666,-4.26667 -1.01334,-2.29333 -2.18667,-4.69333 -1.12,-2.45334 -2.13333,-4.58667 -1.01334,-2.18667 -1.92,-3.89333 -0.85334,-1.70667 -1.38667,-2.61334 -0.58667,6.29334 -0.96,13.65334 -0.37333,7.30666 -0.64,14.77333 h -5.06667 q 0.21334,-4.8 0.48,-9.65333 0.26667,-4.90667 0.58667,-9.6 0.37333,-4.74667 0.74667,-9.22667 0.42666,-4.48 0.90666,-8.48 h 4.53334 q 1.44,2.34667 3.09333,5.54667 1.65333,3.2 3.30667,6.72 1.65333,3.46666 3.2,6.98666 1.54666,3.46667 2.82667,6.34667 1.28,-2.88 2.82666,-6.34667 1.54667,-3.52 3.2,-6.98666 1.65334,-3.52 3.30667,-6.72 1.65333,-3.2 3.09333,-5.54667 h 4.53334 q 1.81333,17.86667 2.72,36.96 h -5.06667 q -0.26667,-7.46667 -0.64,-14.77333 -0.37333,-7.36 -0.96,-13.65334 -0.53333,0.90667 -1.44,2.61334 -0.85333,1.70666 -1.86667,3.89333 -1.01333,2.13333 -2.18666,4.58667 -1.12,2.4 -2.13334,4.69333 -1.01333,2.29333 -1.92,4.26667 -0.85333,1.97333 -1.38666,3.25333 z" />
      <path
         id="path820"
         style="font-style:normal;font-variant:normal;font-weight:normal;font-stretch:normal;font-size:53.33333588px;font-family:Ubuntu;-inkscape-font-specification:'Ubuntu, Normal';font-variant-ligatures:normal;font-variant-caps:normal;font-variant-numeric:normal;font-feature-settings:normal;text-align:center;writing-mode:lr-tb;text-anchor:middle;fill:#224580;fill-opacity:1"
         d="m 209.79393,621.62255 q 0.58667,0.26667 1.49333,0.48 0.96,0.26667 1.86667,0.26667 2.93333,0 4.58667,-1.33333 1.65333,-1.28 2.98666,-4.21334 -3.36,-6.4 -6.29333,-13.54666 -2.88,-7.2 -4.8,-14.56 h 5.33333 q 0.58667,2.4 1.38667,5.17333 0.85333,2.77333 1.86667,5.70667 1.01333,2.93333 2.18666,5.86666 1.17334,2.93334 2.45334,5.65334 2.02666,-5.6 3.52,-11.09334 1.49333,-5.49333 2.82666,-11.30666 h 5.12 q -1.92,7.84 -4.26666,15.09333 -2.34667,7.2 -5.06667,13.49333 -1.06667,2.4 -2.24,4.10667 -1.12,1.76 -2.50667,2.88 -1.38666,1.12 -3.14666,1.65334 -1.70667,0.53333 -3.89334,0.53333 -0.58666,0 -1.22666,-0.10667 -0.64,-0.0533 -1.28,-0.21333 -0.58667,-0.10667 -1.12,-0.26667 -0.48,-0.16 -0.69334,-0.26666 z" />
      <path
         id="path822"
         style="font-style:normal;font-variant:normal;font-weight:normal;font-stretch:normal;font-size:53.33333588px;font-family:Ubuntu;-inkscape-font-specification:'Ubuntu, Normal';font-variant-ligatures:normal;font-variant-caps:normal;font-variant-numeric:normal;font-feature-settings:normal;text-align:center;writing-mode:lr-tb;text-anchor:middle;fill:#224580;fill-opacity:1"
         d="m 248.89227,612.87589 q 1.76,0 3.09333,-0.0533 1.38667,-0.10666 2.29333,-0.32 v -8.26666 q -0.53333,-0.26667 -1.76,-0.42667 -1.17333,-0.21333 -2.88,-0.21333 -1.12,0 -2.4,0.16 -1.22666,0.16 -2.29333,0.69333 -1.01333,0.48 -1.70667,1.38667 -0.69333,0.85333 -0.69333,2.29333 0,2.66667 1.70667,3.73333 1.70666,1.01334 4.64,1.01334 z m -0.42667,-24.85334 q 2.98667,0 5.01333,0.8 2.08,0.74667 3.30667,2.18667 1.28,1.38667 1.81333,3.36 0.53334,1.92 0.53334,4.26667 v 17.33333 q -0.64,0.10667 -1.81334,0.32 -1.12,0.16 -2.56,0.32 -1.44,0.16 -3.14666,0.26667 -1.65334,0.16 -3.30667,0.16 -2.34667,0 -4.32,-0.48 -1.97333,-0.48 -3.41333,-1.49334 -1.44,-1.06666 -2.24,-2.77333 -0.8,-1.70667 -0.8,-4.10667 0,-2.29333 0.90666,-3.94666 0.96,-1.65334 2.56,-2.66667 1.6,-1.01333 3.73334,-1.49333 2.13333,-0.48 4.48,-0.48 0.74666,0 1.54666,0.10666 0.8,0.0533 1.49334,0.21334 0.74666,0.10666 1.28,0.21333 0.53333,0.10667 0.74666,0.16 v -1.38667 q 0,-1.22666 -0.26666,-2.4 -0.26667,-1.22666 -0.96,-2.13333 -0.69334,-0.96 -1.92,-1.49333 -1.17334,-0.58667 -3.09334,-0.58667 -2.45333,0 -4.32,0.37333 -1.81333,0.32 -2.72,0.69334 l -0.58666,-4.10667 q 0.96,-0.42667 3.2,-0.8 2.24,-0.42667 4.85333,-0.42667 z" />
      <path
         id="path824"
         style="font-style:normal;font-variant:normal;font-weight:normal;font-stretch:normal;font-size:53.33333588px;font-family:Ubuntu;-inkscape-font-specification:'Ubuntu, Normal';font-variant-ligatures:normal;font-variant-caps:normal;font-variant-numeric:normal;font-feature-settings:normal;text-align:center;writing-mode:lr-tb;text-anchor:middle;fill:#224580;fill-opacity:1"
         d="m 277.34477,601.19589 q 1.6,1.22666 3.36,3.04 1.81333,1.81333 3.52,3.94666 1.76,2.08 3.30666,4.26667 1.54667,2.13333 2.61334,4 h -5.81334 q -1.12,-1.86667 -2.61333,-3.78667 -1.44,-1.97333 -3.04,-3.73333 -1.6,-1.81333 -3.25333,-3.30667 -1.65334,-1.49333 -3.14667,-2.50666 v 13.33333 h -4.96 v -40.53333 l 4.96,-0.85334 v 25.28 q 1.28,-1.28 2.82667,-2.82666 1.54666,-1.54667 3.04,-3.14667 1.49333,-1.6 2.82666,-3.04 1.33334,-1.49333 2.29334,-2.61333 h 5.81333 q -1.22667,1.33333 -2.66667,2.93333 -1.44,1.6 -2.98666,3.25333 -1.54667,1.6 -3.14667,3.25334 -1.54667,1.6 -2.93333,3.04 z" />
      <path
         id="path826"
         style="font-style:normal;font-variant:normal;font-weight:normal;font-stretch:normal;font-size:53.33333588px;font-family:Ubuntu;-inkscape-font-specification:'Ubuntu, Normal';font-variant-ligatures:normal;font-variant-caps:normal;font-variant-numeric:normal;font-feature-settings:normal;text-align:center;writing-mode:lr-tb;text-anchor:middle;fill:#224580;fill-opacity:1"
         d="m 317.2106,615.64922 q -1.70667,0.42667 -4.53333,0.90667 -2.77334,0.48 -6.45334,0.48 -3.2,0 -5.38666,-0.90667 -2.18667,-0.96 -3.52,-2.66667 -1.33334,-1.70666 -1.92,-4 -0.58667,-2.34666 -0.58667,-5.17333 v -15.57333 h 4.96 v 14.50666 q 0,5.06667 1.6,7.25334 1.6,2.18666 5.38667,2.18666 0.8,0 1.65333,-0.0533 0.85333,-0.0533 1.6,-0.10667 0.74667,-0.10666 1.33333,-0.16 0.64,-0.10666 0.90667,-0.21333 v -23.41333 h 4.96 z" />
      <path
         id="path828"
         style="font-size:53.33333588px;text-align:center;text-anchor:middle;fill:#224580;fill-opacity:1"
         d="m 340.86393,623.01172 q -0.625,-0.20833 -0.98958,-0.67708 l -0.57292,-0.57292 -0.57291,-0.3125 q -0.57292,-0.72917 -1.25,-1.40625 -0.26042,-0.625 -0.41667,-1.25 l -0.36458,-0.52083 q -0.625,-1.14584 -0.88542,-2.1875 l -0.46875,-0.67709 1.40625,0.67709 q 0.88542,0.57291 1.71875,0.57291 l 0.20833,-3.59375 -0.10416,-2.5 q 0.0521,-1.51041 -0.15625,-2.60416 -0.20834,-2.5 -0.15625,-5.10417 -0.98959,0.0521 -1.82292,0.15625 -1.30208,0.57292 -2.5,0.78125 l -1.25,0.36458 q -0.67708,0.3125 -1.40625,0 l -0.52083,-0.26041 -0.20834,0.98958 q -0.15625,1.45833 -0.20833,2.70833 -0.10417,1.66667 -0.36458,2.96875 -0.20834,1.30209 -0.625,2.5 -0.3125,1.35417 -0.52084,2.44792 -0.52083,0.67708 -0.67708,1.51042 -0.83333,1.92708 -2.91667,2.1875 l -0.625,-0.41667 0.52084,-0.36458 0.3125,-0.46875 q 1.5625,-4.11459 2.03125,-8.38542 0.52083,-4.27083 0.9375,-8.54167 0.10416,-1.77083 0.26041,-3.125 0.15625,-1.40625 0.3125,-2.76041 v -4.16667 l -0.10416,-2.55208 q -0.26042,-2.13542 -0.46875,-4.27084 -0.20834,-2.1875 -0.9375,-4.21875 -1.04167,-0.72916 -1.82292,-0.88541 l 0.67708,-0.20834 q 0.78125,-0.625 1.45834,-0.78125 1.19791,-0.46875 2.03125,-0.9375 l 0.83333,-0.41666 q 1.97917,-1.30209 4.16667,-1.66667 2.1875,-0.36458 4.375,-0.57292 1.61458,0.52084 2.60416,1.77084 l 0.57292,0.3125 0.36458,0.57291 q 0.625,0.67709 0.3125,1.30209 -0.10416,0.98958 -0.3125,1.97916 -0.15625,0.98959 -0.15625,2.03125 l -0.10416,0.52084 0.67708,-0.20834 0.52083,0.3125 0.67709,-0.46875 0.36458,-0.46875 0.57292,-0.20833 0.3125,-0.46875 0.9375,-0.3125 0.88541,-0.36458 0.20834,-0.57292 q 2.39583,-1.30208 4.58333,-2.96875 0.78125,-0.67708 1.35417,-0.78125 2.44791,-1.66667 4.11458,-4.01042 0.67708,0.3125 1.35417,0.36459 1.09375,1.14583 2.39583,2.08333 l 0.20833,0.52083 0.72917,0.36459 0.10417,0.57291 0.10416,0.72917 -0.72916,0.15625 -0.625,-0.0521 -0.57292,0.36458 q -0.52083,0.20833 -1.04167,0.3125 -0.67708,0.20833 -1.25,0.46875 -0.83333,0.52083 -1.5625,0.88542 -0.67708,0.3125 -1.51041,0.46875 l -1.51042,0.57291 -0.72917,0.57292 q -0.52083,0.10417 -1.25,0.72917 -0.83333,0.625 -1.875,0.98958 l -0.52083,0.20833 q -0.78125,0.625 -1.35417,0.9375 l -0.67708,0.46875 -1.14583,0.78125 q 1.30208,1.40625 2.29166,3.02084 l 0.41667,1.09375 q 0.52083,0.52083 0.46875,1.14583 l 1.875,-1.25 q 0.41667,-0.57292 1.25,-0.88542 3.90625,-3.28125 8.17708,-6.25 0.41667,-0.67708 0.88542,-0.9375 l 0.41667,-0.41666 0.78125,0.20833 q 1.04166,1.40625 1.61458,3.02083 l -0.20833,0.57292 -0.57292,0.3125 -0.41667,0.52083 -0.72916,0.41667 q -1.09375,1.51042 -2.60417,2.60417 -0.46875,0.26041 -1.04167,0.3125 l -0.78125,0.46875 -0.26041,0.46875 q -0.72917,0.41666 -1.51042,0.67708 l -0.98958,0.36458 v 0.625 l 0.46875,0.36459 0.9375,-0.10417 q 0.41666,0.57292 1.14583,0.57292 l -0.20833,0.78125 0.52083,0.46875 0.52083,-0.26042 0.10417,-0.52083 q 2.29167,-1.51042 4.53125,-3.02084 0.98958,-1.19791 1.875,-2.39583 l 0.98958,-0.41667 0.83334,0.20834 0.57291,0.41666 0.3125,0.57292 0.36459,0.41667 0.10416,1.09375 -0.20833,0.9375 -0.57292,-0.10417 -0.26041,0.46875 q -1.77084,0.9375 -3.17709,2.34375 l -0.78125,0.26042 q -0.88541,0.36458 -1.5625,0.67708 l -0.67708,0.36458 -0.57292,0.3125 q -0.72916,0.15625 -1.25,0.36459 l 0.10417,0.72916 q 0.72917,0.88542 1.04167,1.71875 l 0.3125,0.57292 q 0.67708,0.67708 0.88541,1.35417 1.66667,2.44791 3.125,5 l 0.46875,0.3125 q 2.08334,2.96875 4.63542,5.46875 l 0.36458,0.57291 q 2.39584,2.08334 4.89584,4.16667 l 0.0521,0.57292 q -0.88542,0.41666 -1.82292,0.3125 -1.25,-0.20834 -2.39583,-0.78125 l -0.78125,-0.46875 q -0.67708,-0.3125 -1.14583,-0.67709 -1.19792,-0.67708 -1.92709,-1.82291 -5.83333,-7.13542 -10.15625,-15.41667 l -0.20833,0.78125 -0.10417,0.78125 q 0,0.67708 0,3.17708 0,0.98959 -0.10416,1.61459 l -0.10417,0.88541 q -0.0521,0.67709 0,1.25 0.0521,0.57292 0.15625,1.30209 0.10417,0.67708 0.10417,1.40625 -0.10417,1.92708 -0.0521,3.85416 0,1.30209 -0.20833,2.34375 0,1.51042 -0.26042,2.65625 0.0521,2.1875 -0.46875,4.375 -0.46875,0.26042 -1.09375,0.15625 -0.98958,-0.67708 -1.45833,-1.77083 -0.72917,-1.25 -0.9375,-2.55208 l 0.46875,-1.35417 0.41667,-0.41667 q 0.20833,-0.78125 0.46875,-1.5625 l -0.10417,-0.67708 q 0.20833,-1.40625 0.3125,-2.8125 0.10417,-1.45833 0.20833,-2.91667 v -3.90625 q -0.10416,-0.78125 -0.20833,-1.61458 l 0.0521,-4.27083 v -3.64584 q -0.0521,-0.67708 -0.26041,-1.30208 -0.57292,-0.15625 -1.14584,-0.3125 -0.57291,0.36458 -1.19791,0.52083 -0.625,0.52084 -1.51042,0.72917 0.0521,1.14583 -0.15625,2.23958 -0.10417,1.19792 -0.36458,2.08334 -0.26042,0.83333 -0.26042,1.875 l -0.0521,0.78125 q -0.10417,1.40625 -0.15625,2.65625 -0.0521,1.25 -0.26042,2.34375 -0.57292,0.72916 -0.625,1.35416 -0.36458,1.30209 -0.46875,2.23959 -0.10417,0.9375 -0.26042,1.5625 -0.26041,0.9375 -0.57291,1.66666 l -0.41667,0.52084 -0.15625,0.625 q -0.41667,0.41666 -0.57292,0.9375 -0.83333,0.52083 -1.77083,0.83333 l -0.57292,-0.10417 -0.36458,-0.46875 0.625,-0.20833 0.3125,-0.46875 q 1.25,-2.60417 1.66667,-5.26042 0.41666,-2.70833 0.98958,-5.3125 0,-1.51041 0.10417,-2.70833 l 0.10416,-0.88542 q -0.20833,-0.52083 -0.15625,-1.04166 v -4.47917 l -0.46875,-0.72917 -0.20833,-0.52083 0.3125,-0.67708 0.15625,-1.25 q -0.26042,-0.88542 -0.52083,-1.82292 -0.26042,-0.9375 -0.72917,-1.82292 l -0.57292,0.3125 q -0.15625,-0.52083 -0.26041,-1.14583 -1.14584,-0.20833 -2.1875,0.0521 0,1.5625 -0.15625,3.17709 -0.41667,0.72916 -0.36459,1.66666 l -0.15625,0.83334 v 0.625 q 0.10417,0.9375 0.26042,1.82291 l -0.26042,0.52084 q 0.0521,5.83333 -0.10416,11.61458 0,0.88542 0.15625,1.66667 l -0.10417,1.09375 q 0.15625,0.88541 0.20833,1.82291 0.20834,0.9375 0.20834,1.5625 0.15625,0.98959 0.15625,2.08334 0,1.04166 0.26041,1.92708 0.46875,3.07292 -0.3125,6.04167 z m -8.48958,-21.45833 q 0.9375,-0.3125 1.77083,-0.67709 0.83334,-0.41666 1.82292,-0.57291 h 0.57292 q 0.52083,0.15625 1.09375,0.26041 l 0.625,0.46875 q -0.0521,-4.01041 0.0521,-7.96875 -1.19792,0.15625 -2.08333,0.26042 -0.9375,0.36458 -1.77084,0.46875 -0.78125,0.10417 -1.51041,0.3125 l -0.625,-0.15625 -0.20834,0.625 q -0.20833,1.09375 -0.26041,1.97917 -0.0521,0.83333 -0.3125,1.5625 l 0.0521,0.67708 q -0.15625,1.61458 -0.46875,2.96875 z m 0.78125,-10.41667 0.98958,-0.46875 1.40625,-0.67708 q 1.35417,0.20833 2.76042,0.41666 l 0.10417,-2.5 q -0.0521,-1.51041 0,-2.65625 0.10416,-1.19791 0.15625,-2.29166 l 0.0521,-1.97917 q 0.15625,-0.67708 0.20833,-1.35417 0.0521,-0.72916 0.0521,-1.45833 l -0.52084,-0.20833 -0.57291,0.0521 -0.57292,0.10417 q -0.83333,0.20833 -1.40625,0.20833 -0.88542,0.26042 -1.61458,0.57292 -1.45834,0.46875 -2.86459,1.09375 l 0.26042,0.57291 0.46875,0.3125 0.78125,0.46875 q 0.15625,0.57292 0.67708,1.04167 l -0.36458,0.625 0.0521,0.57292 -0.3125,0.88541 q 0.10417,1.09375 0,2.1875 -0.0521,1.14584 -0.26041,2.23959 l -0.20834,1.61458 v 0.57292 z" />
    </g>
  </g>
</svg>
